<?xml version="1.0" encoding="UTF-8" standalone="no"?>
<!DOCTYPE svg PUBLIC "-//W3C//DTD SVG 1.1//EN"
 "http://www.w3.org/Graphics/SVG/1.1/DTD/svg11.dtd">
<!-- Generated by graphviz version 14.1.1 (20251213.1925)
 -->
<!-- Title: InheritanceTree Pages: 1 -->
<svg width="583pt" height="357pt"
 viewBox="0.00 0.00 583.00 357.00" xmlns="http://www.w3.org/2000/svg" xmlns:xlink="http://www.w3.org/1999/xlink">
<g id="graph0" class="graph" transform="scale(1 1) rotate(0) translate(4 352.5)">
<title>InheritanceTree</title>
<polygon fill="white" stroke="none" points="-4,4 -4,-352.5 578.5,-352.5 578.5,4 -4,4"/>
<text xml:space="preserve" text-anchor="middle" x="287.25" y="-7.2" font-family="Times New Roman,serif" font-size="14.00">simple_usb &#45; Inheritance Hierarchy</text>
<!-- SIMPLE_USB -->
<g id="node1" class="node">
<title>SIMPLE_USB</title>
<path fill="none" stroke="black" d="M102.25,-60.5C102.25,-60.5 28.5,-60.5 28.5,-60.5 22.5,-60.5 16.5,-54.5 16.5,-48.5 16.5,-48.5 16.5,-36.5 16.5,-36.5 16.5,-30.5 22.5,-24.5 28.5,-24.5 28.5,-24.5 102.25,-24.5 102.25,-24.5 108.25,-24.5 114.25,-30.5 114.25,-36.5 114.25,-36.5 114.25,-48.5 114.25,-48.5 114.25,-54.5 108.25,-60.5 102.25,-60.5"/>
<text xml:space="preserve" text-anchor="middle" x="65.38" y="-37.45" font-family="Times New Roman,serif" font-size="14.00">SIMPLE_USB</text>
</g>
<!-- USB_DEVICE -->
<g id="node2" class="node">
<title>USB_DEVICE</title>
<path fill="none" stroke="black" d="M562.5,-132.5C562.5,-132.5 488,-132.5 488,-132.5 482,-132.5 476,-126.5 476,-120.5 476,-120.5 476,-108.5 476,-108.5 476,-102.5 482,-96.5 488,-96.5 488,-96.5 562.5,-96.5 562.5,-96.5 568.5,-96.5 574.5,-102.5 574.5,-108.5 574.5,-108.5 574.5,-120.5 574.5,-120.5 574.5,-126.5 568.5,-132.5 562.5,-132.5"/>
<text xml:space="preserve" text-anchor="middle" x="525.25" y="-109.45" font-family="Times New Roman,serif" font-size="14.00">USB_DEVICE</text>
</g>
<!-- USB_GAMEPAD -->
<g id="node3" class="node">
<title>USB_GAMEPAD</title>
<path fill="none" stroke="black" d="M111.25,-132.5C111.25,-132.5 19.5,-132.5 19.5,-132.5 13.5,-132.5 7.5,-126.5 7.5,-120.5 7.5,-120.5 7.5,-108.5 7.5,-108.5 7.5,-102.5 13.5,-96.5 19.5,-96.5 19.5,-96.5 111.25,-96.5 111.25,-96.5 117.25,-96.5 123.25,-102.5 123.25,-108.5 123.25,-108.5 123.25,-120.5 123.25,-120.5 123.25,-126.5 117.25,-132.5 111.25,-132.5"/>
<text xml:space="preserve" text-anchor="middle" x="65.38" y="-109.45" font-family="Times New Roman,serif" font-size="14.00">USB_GAMEPAD</text>
</g>
<!-- USB_HID_DEVICE -->
<g id="node4" class="node">
<title>USB_HID_DEVICE</title>
<path fill="none" stroke="black" d="M356,-132.5C356,-132.5 250.75,-132.5 250.75,-132.5 244.75,-132.5 238.75,-126.5 238.75,-120.5 238.75,-120.5 238.75,-108.5 238.75,-108.5 238.75,-102.5 244.75,-96.5 250.75,-96.5 250.75,-96.5 356,-96.5 356,-96.5 362,-96.5 368,-102.5 368,-108.5 368,-108.5 368,-120.5 368,-120.5 368,-126.5 362,-132.5 356,-132.5"/>
<text xml:space="preserve" text-anchor="middle" x="303.38" y="-109.45" font-family="Times New Roman,serif" font-size="14.00">USB_HID_DEVICE</text>
</g>
<!-- USB_GAMEPAD&#45;&gt;USB_HID_DEVICE -->
<g id="edge1" class="edge">
<title>USB_GAMEPAD&#45;&gt;USB_HID_DEVICE</title>
<path fill="none" stroke="black" d="M123.6,-114.5C123.6,-114.5 227.12,-114.5 227.12,-114.5"/>
<polygon fill="none" stroke="black" points="227.12,-118 237.12,-114.5 227.12,-111 227.12,-118"/>
</g>
<!-- USB_HID_DEVICE&#45;&gt;USB_DEVICE -->
<g id="edge2" class="edge">
<title>USB_HID_DEVICE&#45;&gt;USB_DEVICE</title>
<path fill="none" stroke="black" d="M368.45,-114.5C368.45,-114.5 464.19,-114.5 464.19,-114.5"/>
<polygon fill="none" stroke="black" points="464.19,-118 474.19,-114.5 464.19,-111 464.19,-118"/>
</g>
<!-- USB_HID_REPORT -->
<g id="node5" class="node">
<title>USB_HID_REPORT</title>
<path fill="none" stroke="black" d="M118.75,-204.5C118.75,-204.5 12,-204.5 12,-204.5 6,-204.5 0,-198.5 0,-192.5 0,-192.5 0,-180.5 0,-180.5 0,-174.5 6,-168.5 12,-168.5 12,-168.5 118.75,-168.5 118.75,-168.5 124.75,-168.5 130.75,-174.5 130.75,-180.5 130.75,-180.5 130.75,-192.5 130.75,-192.5 130.75,-198.5 124.75,-204.5 118.75,-204.5"/>
<text xml:space="preserve" text-anchor="middle" x="65.38" y="-181.45" font-family="Times New Roman,serif" font-size="14.00">USB_HID_REPORT</text>
</g>
<!-- LIB_TESTS -->
<g id="node6" class="node">
<title>LIB_TESTS</title>
<path fill="none" stroke="black" d="M95.5,-276.5C95.5,-276.5 35.25,-276.5 35.25,-276.5 29.25,-276.5 23.25,-270.5 23.25,-264.5 23.25,-264.5 23.25,-252.5 23.25,-252.5 23.25,-246.5 29.25,-240.5 35.25,-240.5 35.25,-240.5 95.5,-240.5 95.5,-240.5 101.5,-240.5 107.5,-246.5 107.5,-252.5 107.5,-252.5 107.5,-264.5 107.5,-264.5 107.5,-270.5 101.5,-276.5 95.5,-276.5"/>
<text xml:space="preserve" text-anchor="middle" x="65.38" y="-253.45" font-family="Times New Roman,serif" font-size="14.00">LIB_TESTS</text>
</g>
<!-- TEST_SET_BASE -->
<g id="node7" class="node">
<title>TEST_SET_BASE</title>
<path fill="none" stroke="black" d="M351.5,-276.5C351.5,-276.5 255.25,-276.5 255.25,-276.5 249.25,-276.5 243.25,-270.5 243.25,-264.5 243.25,-264.5 243.25,-252.5 243.25,-252.5 243.25,-246.5 249.25,-240.5 255.25,-240.5 255.25,-240.5 351.5,-240.5 351.5,-240.5 357.5,-240.5 363.5,-246.5 363.5,-252.5 363.5,-252.5 363.5,-264.5 363.5,-264.5 363.5,-270.5 357.5,-276.5 351.5,-276.5"/>
<text xml:space="preserve" text-anchor="middle" x="303.38" y="-253.45" font-family="Times New Roman,serif" font-size="14.00">TEST_SET_BASE</text>
</g>
<!-- LIB_TESTS&#45;&gt;TEST_SET_BASE -->
<g id="edge3" class="edge">
<title>LIB_TESTS&#45;&gt;TEST_SET_BASE</title>
<path fill="none" stroke="black" d="M107.92,-258.5C107.92,-258.5 231.35,-258.5 231.35,-258.5"/>
<polygon fill="none" stroke="black" points="231.35,-262 241.35,-258.5 231.35,-255 231.35,-262"/>
</g>
<!-- TEST_APP -->
<g id="node8" class="node">
<title>TEST_APP</title>
<path fill="none" stroke="black" d="M93.25,-348.5C93.25,-348.5 37.5,-348.5 37.5,-348.5 31.5,-348.5 25.5,-342.5 25.5,-336.5 25.5,-336.5 25.5,-324.5 25.5,-324.5 25.5,-318.5 31.5,-312.5 37.5,-312.5 37.5,-312.5 93.25,-312.5 93.25,-312.5 99.25,-312.5 105.25,-318.5 105.25,-324.5 105.25,-324.5 105.25,-336.5 105.25,-336.5 105.25,-342.5 99.25,-348.5 93.25,-348.5"/>
<text xml:space="preserve" text-anchor="middle" x="65.38" y="-325.45" font-family="Times New Roman,serif" font-size="14.00">TEST_APP</text>
</g>
</g>
</svg>
