<?xml version="1.0" encoding="UTF-8" standalone="no"?>
<!DOCTYPE svg PUBLIC "-//W3C//DTD SVG 1.1//EN"
 "http://www.w3.org/Graphics/SVG/1.1/DTD/svg11.dtd">
<!-- Generated by graphviz version 14.1.1 (20251213.1925)
 -->
<!-- Title: Dependencies Pages: 1 -->
<svg width="326pt" height="213pt"
 viewBox="0.00 0.00 326.00 213.00" xmlns="http://www.w3.org/2000/svg" xmlns:xlink="http://www.w3.org/1999/xlink">
<g id="graph0" class="graph" transform="scale(1 1) rotate(0) translate(4 208.5)">
<title>Dependencies</title>
<polygon fill="white" stroke="none" points="-4,4 -4,-208.5 321.75,-208.5 321.75,4 -4,4"/>
<text xml:space="preserve" text-anchor="middle" x="158.88" y="-7.2" font-family="Times New Roman,serif" font-size="14.00">simple_usb &#45; Dependencies</text>
<!-- simple_usb -->
<g id="node1" class="node">
<title>simple_usb</title>
<polygon fill="lightblue" stroke="black" points="78.25,-132.5 0,-132.5 0,-96.5 78.25,-96.5 78.25,-132.5"/>
<text xml:space="preserve" text-anchor="middle" x="39.12" y="-109.45" font-family="Times New Roman,serif" font-size="14.00">simple_usb</text>
</g>
<!-- simple_testing -->
<g id="node2" class="node">
<title>simple_testing</title>
<polygon fill="lightblue" stroke="black" points="317.75,-204.5 222.25,-204.5 222.25,-168.5 317.75,-168.5 317.75,-204.5"/>
<text xml:space="preserve" text-anchor="middle" x="270" y="-181.45" font-family="Times New Roman,serif" font-size="14.00">simple_testing</text>
</g>
<!-- simple_usb&#45;&gt;simple_testing -->
<g id="edge1" class="edge">
<title>simple_usb&#45;&gt;simple_testing</title>
<path fill="none" stroke="black" stroke-dasharray="5,2" d="M78.31,-120.5C134.89,-120.5 232.75,-120.5 232.75,-120.5 232.75,-120.5 232.75,-156.6 232.75,-156.6"/>
<polygon fill="black" stroke="black" points="229.25,-156.6 232.75,-166.6 236.25,-156.6 229.25,-156.6"/>
</g>
<!-- base -->
<g id="node3" class="node">
<title>base</title>
<polygon fill="lightgray" stroke="black" points="297,-132.5 243,-132.5 243,-96.5 297,-96.5 297,-132.5"/>
<text xml:space="preserve" text-anchor="middle" x="270" y="-109.45" font-family="Times New Roman,serif" font-size="14.00">base</text>
</g>
<!-- simple_usb&#45;&gt;base -->
<g id="edge2" class="edge">
<title>simple_usb&#45;&gt;base</title>
<path fill="none" stroke="black" stroke-dasharray="5,2" d="M78.55,-108.5C78.55,-108.5 231.16,-108.5 231.16,-108.5"/>
<polygon fill="black" stroke="black" points="231.16,-112 241.16,-108.5 231.16,-105 231.16,-112"/>
</g>
<!-- wel -->
<g id="node4" class="node">
<title>wel</title>
<polygon fill="lightgray" stroke="black" points="297,-60.5 243,-60.5 243,-24.5 297,-24.5 297,-60.5"/>
<text xml:space="preserve" text-anchor="middle" x="270" y="-37.45" font-family="Times New Roman,serif" font-size="14.00">wel</text>
</g>
<!-- simple_usb&#45;&gt;wel -->
<g id="edge3" class="edge">
<title>simple_usb&#45;&gt;wel</title>
<path fill="none" stroke="black" stroke-dasharray="5,2" d="M38.75,-96.33C38.75,-75 38.75,-42.5 38.75,-42.5 38.75,-42.5 231.05,-42.5 231.05,-42.5"/>
<polygon fill="black" stroke="black" points="231.05,-46 241.05,-42.5 231.05,-39 231.05,-46"/>
</g>
</g>
</svg>
